<?xml version="1.0" encoding="UTF-8" standalone="no"?>
<svg
   xmlns:dc="http://purl.org/dc/elements/1.1/"
   xmlns:cc="http://creativecommons.org/ns#"
   xmlns:rdf="http://www.w3.org/1999/02/22-rdf-syntax-ns#"
   xmlns:svg="http://www.w3.org/2000/svg"
   xmlns="http://www.w3.org/2000/svg"
   xmlns:sodipodi="http://sodipodi.sourceforge.net/DTD/sodipodi-0.dtd"
   xmlns:inkscape="http://www.inkscape.org/namespaces/inkscape"
   width="255mm"
   height="200mm"
   viewBox="0 0 255 200"
   version="1.1"
   id="svg3395"
   inkscape:version="1.0.2-2 (e86c870879, 2021-01-15)"
   sodipodi:docname="2 lados de caja.svg">
  <defs
     id="defs3389" />
  <sodipodi:namedview
     id="base"
     pagecolor="#ffffff"
     bordercolor="#666666"
     borderopacity="1.0"
     inkscape:pageopacity="0.0"
     inkscape:pageshadow="2"
     inkscape:zoom="0.49497475"
     inkscape:cx="209.00216"
     inkscape:cy="65.656659"
     inkscape:document-units="mm"
     inkscape:current-layer="layer1"
     inkscape:document-rotation="0"
     showgrid="false"
     inkscape:window-width="1920"
     inkscape:window-height="1017"
     inkscape:window-x="-8"
     inkscape:window-y="-8"
     inkscape:window-maximized="1" />
  <metadata
     id="metadata3392">
    <rdf:RDF>
      <cc:Work
         rdf:about="">
        <dc:format>image/svg+xml</dc:format>
        <dc:type
           rdf:resource="http://purl.org/dc/dcmitype/StillImage" />
        <dc:title></dc:title>
      </cc:Work>
    </rdf:RDF>
  </metadata>
  <g
     inkscape:label="Capa 1"
     inkscape:groupmode="layer"
     id="layer1">
    <rect
       style="fill:none;fill-opacity:1;stroke:#0000ff;stroke-width:0.52916667;stroke-linecap:round;stroke-opacity:1;stroke-miterlimit:4;stroke-dasharray:none"
       id="rect3958"
       width="144.94971"
       height="79.949715"
       x="0.20089278"
       y="119.92486" />
    <text
       xml:space="preserve"
       style="font-style:normal;font-weight:normal;font-size:10.5833px;line-height:1.25;font-family:sans-serif;fill:#000080;fill-opacity:1;stroke:none;stroke-width:0.264583;"
       x="53.721172"
       y="163.30168"
       id="text3962"><tspan
         sodipodi:role="line"
         id="tspan3960"
         x="53.721172"
         y="163.30168"
         style="stroke-width:0.264583;fill:#000080;">vacío </tspan></text>
    <path
       d="M 9.9732601,7.4523771 V 19.952377 h -4.129 v 15 h 4.129 v 15 h -4.129 v 15 h 4.129 v 15 h -4.129 v 15 h 4.129 V 107.45238 H 25.98926 v 3 h 15 v -3 h 15 v 3 h 14.999998 v -3 h 15 v 3 h 15.000002 v -3 h 15 5.145 V 94.952377 h -4.129 v -15 h 4.129 v -15 h -4.129 v -15 h 4.129 v -15 h -4.129 v -15 h 4.129 V 7.4523771 h -20.145 v -3 H 85.989258 v 3 h -15 v -3 H 55.98926 v 3 h -15 v -3 h -15 v 3 h -15 z"
       id="side0_outsideCutPath"
       stroke="#FF0000"
       stroke-width="0.1"
       style="fill:none;stroke:#ff0000;stroke-width:0.25;stroke-miterlimit:4;stroke-dasharray:none"
       vector-effect="non-scaling-stroke" />
    <rect
       style="fill:none;stroke:#ff0000;stroke-width:0.02645833;stroke-miterlimit:4;stroke-dasharray:none;stroke-opacity:1"
       id="rect1479-7"
       width="15"
       height="3"
       x="70.989258"
       y="19.952499" />
    <rect
       style="fill:none;stroke:#ff0000;stroke-width:0.02645833;stroke-miterlimit:4;stroke-dasharray:none;stroke-opacity:1"
       id="rect1481-5"
       width="15"
       height="3"
       x="40.989262"
       y="19.952499" />
    <rect
       style="fill:none;stroke:#ff0000;stroke-width:0.02645833;stroke-miterlimit:4;stroke-dasharray:none;stroke-opacity:1"
       id="rect1483-3"
       width="16.015999"
       height="3"
       x="5.8442602"
       y="19.952377" />
    <path
       d="M 134.32742,6.6964305 V 19.19643 h -4.129 v 15 h 4.129 v 15 h -4.129 v 15 h 4.129 v 15 h -4.129 v 15 h 4.129 v 12.5 h 16.016 v 3 h 15 v -3 h 15 v 3 h 15 v -3 h 15 v 3 h 15 v -3 h 15 5.145 v -12.5 h -4.129 v -15 h 4.129 v -15 h -4.129 v -15 h 4.129 v -15 h -4.129 v -15 h 4.129 V 6.6964305 h -20.145 v -3 h -15 v 3 h -15 v -3 h -15 v 3 h -15 v -3 h -15 v 3 h -15 z"
       id="side0_outsideCutPath-7"
       stroke="#FF0000"
       stroke-width="0.1"
       style="fill:none;stroke:#ff0000;stroke-width:0.25;stroke-miterlimit:4;stroke-dasharray:none;stroke-opacity:1"
       vector-effect="non-scaling-stroke" />
    <rect
       style="fill:none;stroke:#ff0000;stroke-width:0.02645833;stroke-miterlimit:4;stroke-dasharray:none;stroke-opacity:1"
       id="rect1479-7-7"
       width="15"
       height="3"
       x="195.34341"
       y="19.196501" />
    <rect
       style="fill:none;stroke:#ff0000;stroke-width:0.02645833;stroke-miterlimit:4;stroke-dasharray:none;stroke-opacity:1"
       id="rect1481-5-8"
       width="15"
       height="3"
       x="165.34341"
       y="19.196501" />
    <rect
       style="fill:none;stroke:#ff0000;stroke-width:0.02645833;stroke-miterlimit:4;stroke-dasharray:none;stroke-opacity:1"
       id="rect1483-3-4"
       width="16.015999"
       height="3"
       x="130.19843"
       y="19.19643" />
    <rect
       style="fill:none;stroke:#ff0000;stroke-width:0.02645833;stroke-miterlimit:4;stroke-dasharray:none;stroke-opacity:1"
       id="rect1479-7-0"
       width="15"
       height="3"
       x="102.00526"
       y="19.952377" />
    <rect
       style="fill:none;stroke:#ff0000;stroke-width:0.02645833;stroke-miterlimit:4;stroke-dasharray:none;stroke-opacity:1"
       id="rect1479-7-7-2"
       width="15"
       height="3"
       x="226.35942"
       y="19.19643" />
  </g>
</svg>
