<?xml version="1.0" encoding="UTF-8" standalone="no"?>
<svg
   xmlns:dc="http://purl.org/dc/elements/1.1/"
   xmlns:cc="http://creativecommons.org/ns#"
   xmlns:rdf="http://www.w3.org/1999/02/22-rdf-syntax-ns#"
   xmlns:svg="http://www.w3.org/2000/svg"
   xmlns="http://www.w3.org/2000/svg"
   xmlns:sodipodi="http://sodipodi.sourceforge.net/DTD/sodipodi-0.dtd"
   xmlns:inkscape="http://www.inkscape.org/namespaces/inkscape"
   width="500mm"
   height="500mm"
   viewBox="0 0 499.99998 500.00001"
   version="1.1"
   preserveAspectRatio="xMidYMid meet"
   id="svg907"
   sodipodi:docname="booxxx.svg"
   inkscape:version="1.0.2 (394de47547, 2021-03-26)"
   inkscape:export-filename="/home/auxiliarinformatica/Escritorio/pruebaa chikita.png"
   inkscape:export-xdpi="302"
   inkscape:export-ydpi="302">
  <metadata
     id="metadata913">
    <rdf:RDF>
      <cc:Work
         rdf:about="">
        <dc:format>image/svg+xml</dc:format>
        <dc:type
           rdf:resource="http://purl.org/dc/dcmitype/StillImage" />
        <dc:title></dc:title>
      </cc:Work>
    </rdf:RDF>
  </metadata>
  <defs
     id="defs911">
    <marker
       style="overflow:visible"
       id="marker1235"
       refX="0"
       refY="0"
       orient="auto"
       inkscape:stockid="Arrow1Lstart"
       inkscape:isstock="true">
      <path
         transform="matrix(0.8,0,0,0.8,10,0)"
         style="fill:#ffffff;fill-opacity:1;fill-rule:evenodd;stroke:#fa0000;stroke-width:1pt;stroke-opacity:1"
         d="M 0,0 5,-5 -12.5,0 5,5 Z"
         id="path1233" />
    </marker>
    <marker
       style="overflow:visible"
       id="marker1195"
       refX="0"
       refY="0"
       orient="auto"
       inkscape:stockid="Arrow1Lstart"
       inkscape:isstock="true">
      <path
         transform="matrix(0.8,0,0,0.8,10,0)"
         style="fill:#ffffff;fill-opacity:1;fill-rule:evenodd;stroke:#000000;stroke-width:1pt;stroke-opacity:1"
         d="M 0,0 5,-5 -12.5,0 5,5 Z"
         id="path1193" />
    </marker>
    <marker
       style="overflow:visible"
       id="Arrow1Lstart"
       refX="0"
       refY="0"
       orient="auto"
       inkscape:stockid="Arrow1Lstart"
       inkscape:isstock="true">
      <path
         transform="matrix(0.8,0,0,0.8,10,0)"
         style="fill:#ffffff;fill-opacity:1;fill-rule:evenodd;stroke:#000000;stroke-width:1pt;stroke-opacity:1"
         d="M 0,0 5,-5 -12.5,0 5,5 Z"
         id="path917" />
    </marker>
  </defs>
  <sodipodi:namedview
     pagecolor="#ffffff"
     bordercolor="#666666"
     borderopacity="1"
     objecttolerance="10"
     gridtolerance="10"
     guidetolerance="10"
     inkscape:pageopacity="0"
     inkscape:pageshadow="2"
     inkscape:window-width="1853"
     inkscape:window-height="1025"
     id="namedview909"
     showgrid="false"
     inkscape:zoom="0.13094005"
     inkscape:cx="975.24417"
     inkscape:cy="819.53877"
     inkscape:window-x="67"
     inkscape:window-y="27"
     inkscape:window-maximized="1"
     inkscape:current-layer="svgGroup"
     inkscape:document-rotation="0" />
  <g
     id="svgGroup"
     stroke-linecap="round"
     fill-rule="evenodd"
     font-size="12px"
     stroke="#000"
     stroke-width="0.25mm"
     fill="none"
     style="fill:none;stroke:#000000;stroke-width:0.25mm">
    <rect
       style="fill:#ffffff;stroke:#000000;stroke-width:0"
       id="rect2365"
       width="585.54474"
       height="555.32983"
       x="-50.436081"
       y="-29.301262" />
    <path
       d="m 4.129,394.42675 v 12.5 H 0 v 15 h 4.129 v 15 H 0 v 15 h 4.129 v 15 H 0 v 15 h 4.129 v 12.5 h 16.016 v 3 h 15 v -3 h 15 v 3 h 15 v -3 h 15 v 3 h 15 v -3 h 15 5.145 v -12.5 h -4.129 v -15 h 4.129 v -15 h -4.129 v -15 h 4.129 v -15 h -4.129 v -15 h 4.129 v -12.5 H 95.145 v -3 h -15 v 3 h -15 v -3 h -15 v 3 h -15 v -3 h -15 v 3 h -15 z"
       id="side1_outsideCutPath"
       stroke="#FF0000"
       stroke-width="0.1"
       style="stroke:#ff0000;stroke-width:0.1"
       vector-effect="non-scaling-stroke" />
    <path
       d="m 34.344,451.86975 v -1.594 a 8.508,8.508 0 0 0 1.747,0.65 8.889,8.889 0 0 0 0.007,0.002 q 0.937,0.238 1.807,0.238 a 6.78,6.78 0 0 0 0.771,-0.041 q 0.798,-0.092 1.299,-0.389 0.647,-0.383 0.716,-1.126 a 1.973,1.973 0 0 0 0.009,-0.183 1.372,1.372 0 0 0 -0.421,-0.993 1.966,1.966 0 0 0 -0.154,-0.141 3.096,3.096 0 0 0 -0.355,-0.246 q -0.622,-0.376 -1.831,-0.845 a 26.965,26.965 0 0 0 -0.055,-0.021 q -1.251,-0.466 -1.93,-0.839 a 4.639,4.639 0 0 1 -0.321,-0.191 3.738,3.738 0 0 1 -0.519,-0.408 q -0.292,-0.277 -0.475,-0.591 -0.326,-0.559 -0.326,-1.336 a 2.726,2.726 0 0 1 0.216,-1.101 q 0.277,-0.637 0.912,-1.088 a 3.944,3.944 0 0 1 1.195,-0.562 q 0.515,-0.15 1.129,-0.206 a 8.458,8.458 0 0 1 0.771,-0.034 9.056,9.056 0 0 1 3.582,0.745 l -0.611,1.398 a 10.755,10.755 0 0 0 -1.31,-0.45 q -0.951,-0.254 -1.785,-0.254 a 6.302,6.302 0 0 0 -0.64,0.03 q -0.756,0.077 -1.203,0.353 a 1.461,1.461 0 0 0 -0.353,0.297 1.137,1.137 0 0 0 -0.268,0.759 1.486,1.486 0 0 0 0.048,0.385 1.178,1.178 0 0 0 0.185,0.391 q 0.233,0.321 0.751,0.611 a 4.999,4.999 0 0 0 0.306,0.155 q 0.512,0.242 1.471,0.604 a 50.708,50.708 0 0 0 0.21,0.079 16.146,16.146 0 0 1 0.928,0.368 q 1.268,0.553 1.8,1.112 a 2.551,2.551 0 0 1 0.699,1.615 3.389,3.389 0 0 1 0.01,0.259 3.383,3.383 0 0 1 -0.165,1.083 2.731,2.731 0 0 1 -1.015,1.36 4.027,4.027 0 0 1 -1.215,0.587 q -0.898,0.272 -2.098,0.272 a 11.557,11.557 0 0 1 -1.313,-0.07 q -1.338,-0.153 -2.206,-0.644 z m 24.119,0.507 -0.228,-1.522 h -0.093 a 3.869,3.869 0 0 1 -2.84,1.686 5.798,5.798 0 0 1 -0.721,0.043 5.207,5.207 0 0 1 -1.501,-0.205 3.931,3.931 0 0 1 -1.961,-1.316 q -1,-1.23 -1.192,-3.296 a 11.15,11.15 0 0 1 -0.045,-1.031 10.196,10.196 0 0 1 0.132,-1.697 q 0.153,-0.909 0.485,-1.637 a 4.852,4.852 0 0 1 0.625,-1.024 4.048,4.048 0 0 1 2.886,-1.526 5.806,5.806 0 0 1 0.571,-0.027 q 2.309,0 3.54,1.677 h 0.135 l -0.073,-0.818 -0.041,-0.797 v -4.617 h 1.718 v 16.107 z m 14.006,-6.449 v 1.087 h -7.816 a 6.897,6.897 0 0 0 0.121,1.155 q 0.124,0.629 0.373,1.125 a 3.226,3.226 0 0 0 0.515,0.753 3.122,3.122 0 0 0 1.64,0.924 4.731,4.731 0 0 0 1.057,0.111 9.076,9.076 0 0 0 3.399,-0.673 10.399,10.399 0 0 0 0.224,-0.093 v 1.532 q -0.911,0.394 -1.723,0.564 a 7.214,7.214 0 0 1 -0.716,0.111 q -0.352,0.038 -0.751,0.052 a 14,14 0 0 1 -0.495,0.008 6.677,6.677 0 0 1 -1.671,-0.198 4.728,4.728 0 0 1 -2.299,-1.334 q -1.454,-1.532 -1.454,-4.254 a 9.023,9.023 0 0 1 0.167,-1.79 q 0.22,-1.087 0.73,-1.933 a 5.088,5.088 0 0 1 0.454,-0.635 4.403,4.403 0 0 1 3.209,-1.601 6.074,6.074 0 0 1 0.419,-0.014 q 2.132,0 3.374,1.402 a 4.805,4.805 0 0 1 1.089,2.196 6.994,6.994 0 0 1 0.154,1.505 z m 8.509,-8.685 v 15.134 h -1.677 v -10.786 a 39.075,39.075 0 0 1 0.039,-1.782 33.023,33.023 0 0 1 0.043,-0.765 9.73,9.73 0 0 1 -0.23,0.223 12.294,12.294 0 0 1 -0.256,0.233 q -0.269,0.238 -2.464,2.018 l -0.911,-1.18 4.006,-3.095 z m -34.109,3.789 v 11.345 h -1.718 v -11.345 z m 11.273,6.066 v -0.362 q 0,-2.049 -0.579,-3.101 a 2.575,2.575 0 0 0 -0.223,-0.341 q -0.719,-0.924 -2.208,-1.019 a 5.528,5.528 0 0 0 -0.354,-0.011 3.083,3.083 0 0 0 -1.033,0.164 2.563,2.563 0 0 0 -1.281,1.011 4.049,4.049 0 0 0 -0.519,1.114 q -0.159,0.524 -0.229,1.155 a 9.585,9.585 0 0 0 -0.054,1.048 9.496,9.496 0 0 0 0.07,1.197 q 0.167,1.306 0.727,2.085 a 2.589,2.589 0 0 0 1.876,1.08 3.849,3.849 0 0 0 0.464,0.027 5.103,5.103 0 0 0 0.936,-0.08 q 0.518,-0.097 0.917,-0.311 a 2.312,2.312 0 0 0 0.698,-0.566 q 0.792,-0.958 0.792,-3.09 z m 6.553,-1.48 h 5.931 q 0,-1.626 -0.725,-2.49 a 2.354,2.354 0 0 0 -1.417,-0.807 3.531,3.531 0 0 0 -0.653,-0.057 3.387,3.387 0 0 0 -0.978,0.134 2.617,2.617 0 0 0 -1.201,0.756 q -0.735,0.805 -0.924,2.17 a 6.492,6.492 0 0 0 -0.033,0.294 z m -19.665,-7.975 a 1.904,1.904 0 0 0 -0.024,0.314 2.029,2.029 0 0 0 0.009,0.194 q 0.042,0.436 0.281,0.671 a 0.964,0.964 0 0 0 0.349,0.222 1.092,1.092 0 0 0 0.375,0.062 q 0.414,0 0.715,-0.284 a 0.839,0.839 0 0 0 0.163,-0.217 q 0.075,-0.141 0.109,-0.322 a 1.778,1.778 0 0 0 0.028,-0.326 1.966,1.966 0 0 0 -0.009,-0.186 q -0.042,-0.44 -0.291,-0.673 -0.301,-0.279 -0.715,-0.279 a 1.312,1.312 0 0 0 -0.086,0.003 0.994,0.994 0 0 0 -0.638,0.271 0.804,0.804 0 0 0 -0.178,0.252 q -0.06,0.131 -0.088,0.298 z"
       id="side1_labelLayer"
       stroke="#777777"
       fill="#777777"
       style="fill:#777777;stroke:#777777"
       vector-effect="non-scaling-stroke" />
    <path
       d="m 122.419,394.42675 v 12.5 h -4.129 v 15 h 4.129 v 15 h -4.129 v 15 h 4.129 v 15 h -4.129 v 15 h 4.129 v 12.5 h 16.016 v 3 h 15 v -3 h 15 v 3 h 15 v -3 h 15 v 3 h 15 v -3 h 15 5.145 v -12.5 h -4.129 v -15 h 4.129 v -15 h -4.129 v -15 h 4.129 v -15 h -4.129 v -15 h 4.129 v -12.5 h -20.145 v -3 h -15 v 3 h -15 v -3 h -15 v 3 h -15 v -3 h -15 v 3 h -15 z"
       id="side3_outsideCutPath"
       stroke="#FF0000"
       stroke-width="0.1"
       style="stroke:#ff0000;stroke-width:0.1"
       vector-effect="non-scaling-stroke" />
    <path
       d="m 197.425,444.40575 v 0.083 a 6.664,6.664 0 0 1 1.047,0.211 q 1.05,0.308 1.655,0.949 a 3.165,3.165 0 0 1 0.814,1.659 4.47,4.47 0 0 1 0.066,0.784 4.969,4.969 0 0 1 -0.192,1.419 3.692,3.692 0 0 1 -1.309,1.909 q -1.501,1.164 -4.265,1.164 a 13.862,13.862 0 0 1 -1.253,-0.054 10.768,10.768 0 0 1 -0.947,-0.127 7.528,7.528 0 0 1 -1.941,-0.637 v -1.635 a 9.438,9.438 0 0 0 2.096,0.74 10.342,10.342 0 0 0 1.28,0.212 8.406,8.406 0 0 0 0.827,0.042 7.345,7.345 0 0 0 1.432,-0.127 q 2.247,-0.449 2.467,-2.487 a 4.295,4.295 0 0 0 0.024,-0.461 2.301,2.301 0 0 0 -1.312,-2.198 q -0.985,-0.511 -2.707,-0.552 a 12.876,12.876 0 0 0 -0.308,-0.003 h -1.49 v -1.481 h 1.511 a 6.49,6.49 0 0 0 1.13,-0.092 q 0.996,-0.176 1.675,-0.689 a 2.507,2.507 0 0 0 1.019,-1.831 3.435,3.435 0 0 0 0.016,-0.338 2.592,2.592 0 0 0 -0.107,-0.764 2.011,2.011 0 0 0 -0.653,-0.975 2.588,2.588 0 0 0 -0.979,-0.497 q -0.379,-0.105 -0.829,-0.128 a 5.061,5.061 0 0 0 -0.258,-0.006 q -0.993,0 -1.873,0.269 -0.88,0.269 -2.008,0.994 l -0.87,-1.16 a 7.104,7.104 0 0 1 1.775,-1.015 8.215,8.215 0 0 1 0.373,-0.139 7.807,7.807 0 0 1 2.562,-0.419 7.75,7.75 0 0 1 1.341,0.108 q 0.731,0.129 1.314,0.41 a 3.786,3.786 0 0 1 0.771,0.491 3.299,3.299 0 0 1 1.203,2.338 4.689,4.689 0 0 1 0.019,0.431 4.227,4.227 0 0 1 -0.129,1.071 3.13,3.13 0 0 1 -0.684,1.3 q -0.812,0.921 -2.303,1.231 z m -46.53,7.464 v -1.594 a 8.508,8.508 0 0 0 1.747,0.65 8.889,8.889 0 0 0 0.007,0.002 q 0.937,0.238 1.807,0.238 a 6.78,6.78 0 0 0 0.771,-0.041 q 0.798,-0.092 1.299,-0.389 0.647,-0.383 0.716,-1.126 a 1.973,1.973 0 0 0 0.009,-0.183 1.372,1.372 0 0 0 -0.421,-0.993 1.966,1.966 0 0 0 -0.154,-0.141 3.096,3.096 0 0 0 -0.355,-0.246 q -0.622,-0.376 -1.831,-0.845 a 26.965,26.965 0 0 0 -0.055,-0.021 q -1.251,-0.466 -1.93,-0.839 a 4.639,4.639 0 0 1 -0.321,-0.191 3.738,3.738 0 0 1 -0.519,-0.408 q -0.292,-0.277 -0.475,-0.591 -0.326,-0.559 -0.326,-1.336 a 2.726,2.726 0 0 1 0.216,-1.101 q 0.277,-0.637 0.912,-1.088 a 3.944,3.944 0 0 1 1.195,-0.562 q 0.515,-0.15 1.129,-0.206 a 8.458,8.458 0 0 1 0.771,-0.034 9.056,9.056 0 0 1 3.582,0.745 l -0.611,1.398 a 10.755,10.755 0 0 0 -1.31,-0.45 q -0.951,-0.254 -1.785,-0.254 a 6.302,6.302 0 0 0 -0.64,0.03 q -0.756,0.077 -1.203,0.353 a 1.461,1.461 0 0 0 -0.353,0.297 1.137,1.137 0 0 0 -0.268,0.759 1.486,1.486 0 0 0 0.048,0.385 1.178,1.178 0 0 0 0.185,0.391 q 0.233,0.321 0.751,0.611 a 4.999,4.999 0 0 0 0.306,0.155 q 0.512,0.242 1.471,0.604 a 50.708,50.708 0 0 0 0.21,0.079 16.146,16.146 0 0 1 0.928,0.368 q 1.268,0.553 1.8,1.112 a 2.551,2.551 0 0 1 0.699,1.615 3.389,3.389 0 0 1 0.01,0.259 3.383,3.383 0 0 1 -0.165,1.083 2.731,2.731 0 0 1 -1.015,1.36 4.027,4.027 0 0 1 -1.215,0.587 q -0.898,0.272 -2.098,0.272 a 11.557,11.557 0 0 1 -1.313,-0.07 q -1.338,-0.153 -2.206,-0.644 z m 24.119,0.507 -0.228,-1.522 h -0.093 a 3.869,3.869 0 0 1 -2.84,1.686 5.798,5.798 0 0 1 -0.721,0.043 5.207,5.207 0 0 1 -1.501,-0.205 3.931,3.931 0 0 1 -1.961,-1.316 q -1,-1.23 -1.192,-3.296 a 11.15,11.15 0 0 1 -0.046,-1.031 10.196,10.196 0 0 1 0.133,-1.697 q 0.153,-0.909 0.485,-1.637 a 4.852,4.852 0 0 1 0.625,-1.024 4.048,4.048 0 0 1 2.886,-1.526 5.806,5.806 0 0 1 0.571,-0.027 q 2.309,0 3.54,1.677 h 0.135 l -0.073,-0.818 -0.041,-0.797 v -4.617 h 1.718 v 16.107 z m 14.006,-6.449 v 1.087 h -7.816 a 6.897,6.897 0 0 0 0.121,1.155 q 0.124,0.629 0.373,1.125 a 3.226,3.226 0 0 0 0.515,0.753 3.122,3.122 0 0 0 1.64,0.924 4.731,4.731 0 0 0 1.057,0.111 9.076,9.076 0 0 0 3.399,-0.673 10.399,10.399 0 0 0 0.224,-0.093 v 1.532 q -0.911,0.394 -1.723,0.564 a 7.214,7.214 0 0 1 -0.716,0.111 q -0.352,0.038 -0.751,0.052 a 14,14 0 0 1 -0.495,0.008 6.677,6.677 0 0 1 -1.671,-0.198 4.728,4.728 0 0 1 -2.299,-1.334 q -1.454,-1.532 -1.454,-4.254 a 9.023,9.023 0 0 1 0.167,-1.79 q 0.22,-1.087 0.73,-1.933 a 5.088,5.088 0 0 1 0.454,-0.635 4.403,4.403 0 0 1 3.209,-1.601 6.074,6.074 0 0 1 0.419,-0.014 q 2.132,0 3.374,1.402 a 4.805,4.805 0 0 1 1.089,2.196 6.994,6.994 0 0 1 0.154,1.505 z m -25.6,-4.896 v 11.345 h -1.718 v -11.345 z m 11.273,6.066 v -0.362 q 0,-2.049 -0.579,-3.101 a 2.575,2.575 0 0 0 -0.223,-0.341 q -0.719,-0.924 -2.208,-1.019 a 5.528,5.528 0 0 0 -0.354,-0.011 3.083,3.083 0 0 0 -1.033,0.164 2.563,2.563 0 0 0 -1.281,1.011 4.049,4.049 0 0 0 -0.519,1.114 q -0.159,0.524 -0.229,1.155 a 9.585,9.585 0 0 0 -0.054,1.048 9.496,9.496 0 0 0 0.07,1.197 q 0.167,1.306 0.727,2.085 a 2.589,2.589 0 0 0 1.876,1.08 3.849,3.849 0 0 0 0.463,0.027 5.103,5.103 0 0 0 0.937,-0.08 q 0.518,-0.097 0.917,-0.311 a 2.312,2.312 0 0 0 0.698,-0.566 q 0.792,-0.958 0.792,-3.09 z m 6.553,-1.48 h 5.931 q 0,-1.626 -0.725,-2.49 a 2.354,2.354 0 0 0 -1.417,-0.807 3.531,3.531 0 0 0 -0.653,-0.057 3.387,3.387 0 0 0 -0.978,0.134 2.617,2.617 0 0 0 -1.201,0.756 q -0.735,0.805 -0.924,2.17 a 6.492,6.492 0 0 0 -0.033,0.294 z m -19.665,-7.975 a 1.904,1.904 0 0 0 -0.024,0.314 2.029,2.029 0 0 0 0.009,0.194 q 0.042,0.436 0.281,0.671 a 0.964,0.964 0 0 0 0.349,0.222 1.092,1.092 0 0 0 0.375,0.062 q 0.414,0 0.715,-0.284 a 0.839,0.839 0 0 0 0.163,-0.217 q 0.075,-0.141 0.109,-0.322 a 1.778,1.778 0 0 0 0.028,-0.326 1.966,1.966 0 0 0 -0.009,-0.186 q -0.042,-0.44 -0.291,-0.673 -0.301,-0.279 -0.715,-0.279 a 1.312,1.312 0 0 0 -0.086,0.003 0.994,0.994 0 0 0 -0.638,0.271 0.804,0.804 0 0 0 -0.178,0.252 q -0.06,0.131 -0.088,0.298 z"
       id="side3_labelLayer"
       stroke="#777777"
       fill="#777777"
       style="fill:#777777;stroke:#777777"
       vector-effect="non-scaling-stroke" />
    <path
       d="m 4.129,285.42675 v 12.5 H 0 v 15 h 4.129 v 15 H 0 v 15 h 4.129 v 15 H 0 v 15 h 4.129 v 12.5 h 16.016 v 3 h 15 v -3 h 15 v 3 h 15 v -3 h 15 v 3 h 15 v -3 h 15 5.145 v -12.5 h -4.129 v -15 h 4.129 v -15 h -4.129 v -15 h 4.129 v -15 h -4.129 v -15 h 4.129 v -12.5 H 95.145 v -3 h -15 v 3 h -15 v -3 h -15 v 3 h -15 v -3 h -15 v 3 h -15 z"
       id="side0_outsideCutPath"
       stroke="#FF0000"
       stroke-width="0.1"
       style="stroke:#ff0000;stroke-width:0.1"
       vector-effect="non-scaling-stroke" />
    <path
       d="m 32.512,342.86975 v -1.594 a 8.508,8.508 0 0 0 1.747,0.65 8.889,8.889 0 0 0 0.007,0.002 q 0.937,0.238 1.806,0.238 a 6.78,6.78 0 0 0 0.772,-0.041 q 0.798,-0.092 1.299,-0.389 0.647,-0.383 0.716,-1.126 a 1.973,1.973 0 0 0 0.008,-0.183 1.372,1.372 0 0 0 -0.42,-0.993 1.966,1.966 0 0 0 -0.154,-0.141 3.096,3.096 0 0 0 -0.356,-0.246 q -0.621,-0.376 -1.83,-0.845 a 26.965,26.965 0 0 0 -0.055,-0.021 q -1.251,-0.466 -1.931,-0.839 a 4.639,4.639 0 0 1 -0.321,-0.191 3.738,3.738 0 0 1 -0.519,-0.408 q -0.291,-0.277 -0.474,-0.591 -0.327,-0.559 -0.327,-1.336 a 2.726,2.726 0 0 1 0.216,-1.101 q 0.278,-0.637 0.913,-1.088 a 3.944,3.944 0 0 1 1.194,-0.562 q 0.516,-0.15 1.129,-0.206 a 8.458,8.458 0 0 1 0.772,-0.034 9.056,9.056 0 0 1 3.582,0.745 l -0.611,1.398 a 10.755,10.755 0 0 0 -1.31,-0.45 q -0.951,-0.254 -1.785,-0.254 a 6.302,6.302 0 0 0 -0.64,0.03 q -0.756,0.077 -1.203,0.353 a 1.461,1.461 0 0 0 -0.353,0.297 1.137,1.137 0 0 0 -0.268,0.758 1.486,1.486 0 0 0 0.048,0.386 1.178,1.178 0 0 0 0.185,0.391 q 0.233,0.321 0.75,0.611 a 4.999,4.999 0 0 0 0.307,0.155 q 0.512,0.241 1.471,0.604 a 50.708,50.708 0 0 0 0.21,0.079 16.146,16.146 0 0 1 0.927,0.368 q 1.269,0.553 1.801,1.112 a 2.551,2.551 0 0 1 0.699,1.615 3.389,3.389 0 0 1 0.01,0.259 3.383,3.383 0 0 1 -0.165,1.083 2.731,2.731 0 0 1 -1.015,1.36 4.027,4.027 0 0 1 -1.215,0.587 q -0.898,0.272 -2.098,0.272 a 11.557,11.557 0 0 1 -1.313,-0.07 q -1.338,-0.153 -2.206,-0.644 z m 24.119,0.507 -0.228,-1.522 H 56.31 a 3.869,3.869 0 0 1 -2.841,1.686 5.798,5.798 0 0 1 -0.72,0.043 5.207,5.207 0 0 1 -1.501,-0.205 3.931,3.931 0 0 1 -1.962,-1.317 q -0.999,-1.229 -1.191,-3.295 a 11.15,11.15 0 0 1 -0.046,-1.031 10.196,10.196 0 0 1 0.132,-1.697 q 0.154,-0.909 0.486,-1.637 a 4.852,4.852 0 0 1 0.624,-1.025 4.048,4.048 0 0 1 2.887,-1.525 5.806,5.806 0 0 1 0.571,-0.027 q 2.308,0 3.54,1.677 h 0.135 l -0.073,-0.818 -0.041,-0.797 v -4.617 h 1.718 v 16.107 z m 14.005,-6.449 v 1.087 h -7.815 a 6.897,6.897 0 0 0 0.121,1.155 q 0.124,0.629 0.372,1.125 a 3.226,3.226 0 0 0 0.516,0.753 3.122,3.122 0 0 0 1.64,0.924 4.731,4.731 0 0 0 1.057,0.111 9.076,9.076 0 0 0 3.399,-0.673 10.399,10.399 0 0 0 0.224,-0.093 v 1.532 q -0.911,0.394 -1.724,0.564 a 7.214,7.214 0 0 1 -0.715,0.111 q -0.353,0.038 -0.751,0.052 a 14,14 0 0 1 -0.495,0.008 6.677,6.677 0 0 1 -1.671,-0.198 4.728,4.728 0 0 1 -2.299,-1.334 q -1.455,-1.532 -1.455,-4.254 a 9.023,9.023 0 0 1 0.167,-1.79 q 0.221,-1.087 0.731,-1.933 a 5.088,5.088 0 0 1 0.453,-0.635 4.403,4.403 0 0 1 3.21,-1.601 6.074,6.074 0 0 1 0.419,-0.014 q 2.132,0 3.374,1.402 a 4.805,4.805 0 0 1 1.089,2.196 6.994,6.994 0 0 1 0.153,1.505 z m 12.076,0.911 a 19.991,19.991 0 0 0 0.098,-2.05 18.045,18.045 0 0 0 -0.117,-2.129 q -0.27,-2.264 -1.162,-3.657 a 5.319,5.319 0 0 0 -0.076,-0.115 q -0.782,-1.156 -1.985,-1.602 a 4.801,4.801 0 0 0 -1.681,-0.281 5.85,5.85 0 0 0 -0.848,0.059 3.99,3.99 0 0 0 -2.909,1.856 5.196,5.196 0 0 0 -0.227,0.389 q -0.692,1.314 -0.908,3.417 a 20.307,20.307 0 0 0 -0.097,2.063 22.711,22.711 0 0 0 0,0.151 q 0.025,3.719 1.273,5.662 a 5.297,5.297 0 0 0 0.077,0.117 q 0.779,1.144 1.972,1.586 a 4.765,4.765 0 0 0 1.667,0.279 5.864,5.864 0 0 0 0.873,-0.062 4.007,4.007 0 0 0 2.911,-1.874 5.268,5.268 0 0 0 0.185,-0.313 q 0.731,-1.34 0.954,-3.496 z m -8.173,-2.05 q 0,3.303 0.776,4.809 a 2.962,2.962 0 0 0 0.669,0.88 q 0.6,0.528 1.473,0.611 a 3.534,3.534 0 0 0 0.332,0.015 3.003,3.003 0 0 0 1.086,-0.187 q 0.902,-0.347 1.404,-1.34 0.771,-1.527 0.771,-4.788 a 21.971,21.971 0 0 0 -0.058,-1.652 q -0.119,-1.579 -0.487,-2.596 a 4.65,4.65 0 0 0 -0.226,-0.529 2.937,2.937 0 0 0 -0.677,-0.894 q -0.712,-0.622 -1.813,-0.622 a 3,3 0 0 0 -1.08,0.185 q -0.765,0.293 -1.245,1.05 a 3.511,3.511 0 0 0 -0.149,0.26 5.214,5.214 0 0 0 -0.392,1.048 q -0.384,1.429 -0.384,3.75 z m -29.502,-3.757 v 11.345 h -1.718 v -11.345 z m 11.273,6.066 v -0.362 q 0,-2.049 -0.579,-3.101 a 2.575,2.575 0 0 0 -0.223,-0.341 q -0.72,-0.924 -2.208,-1.019 a 5.528,5.528 0 0 0 -0.354,-0.011 3.083,3.083 0 0 0 -1.033,0.164 2.563,2.563 0 0 0 -1.281,1.011 4.049,4.049 0 0 0 -0.519,1.114 q -0.16,0.524 -0.229,1.155 a 9.585,9.585 0 0 0 -0.054,1.048 9.496,9.496 0 0 0 0.07,1.197 q 0.166,1.306 0.727,2.085 a 2.589,2.589 0 0 0 1.875,1.08 3.849,3.849 0 0 0 0.464,0.027 5.103,5.103 0 0 0 0.937,-0.08 q 0.518,-0.097 0.917,-0.311 a 2.312,2.312 0 0 0 0.698,-0.566 q 0.792,-0.958 0.792,-3.09 z m 6.552,-1.48 h 5.932 q 0,-1.626 -0.725,-2.49 a 2.354,2.354 0 0 0 -1.418,-0.807 3.531,3.531 0 0 0 -0.652,-0.057 3.387,3.387 0 0 0 -0.979,0.134 2.617,2.617 0 0 0 -1.2,0.756 q -0.735,0.805 -0.924,2.17 a 6.492,6.492 0 0 0 -0.034,0.294 z m -19.664,-7.975 a 1.904,1.904 0 0 0 -0.024,0.314 2.029,2.029 0 0 0 0.009,0.194 q 0.041,0.436 0.28,0.671 a 0.964,0.964 0 0 0 0.349,0.222 1.092,1.092 0 0 0 0.376,0.062 q 0.414,0 0.714,-0.284 a 0.839,0.839 0 0 0 0.164,-0.217 q 0.075,-0.141 0.109,-0.322 a 1.778,1.778 0 0 0 0.028,-0.326 1.966,1.966 0 0 0 -0.009,-0.186 q -0.042,-0.44 -0.292,-0.673 -0.3,-0.279 -0.714,-0.279 a 1.312,1.312 0 0 0 -0.087,0.003 0.994,0.994 0 0 0 -0.638,0.271 0.804,0.804 0 0 0 -0.177,0.252 q -0.06,0.131 -0.088,0.298 z"
       id="side0_labelLayer"
       stroke="#777777"
       fill="#777777"
       style="fill:#777777;stroke:#777777"
       vector-effect="non-scaling-stroke" />
    <path
       d="m 122.419,285.42675 v 12.5 h -4.129 v 15 h 4.129 v 15 h -4.129 v 15 h 4.129 v 15 h -4.129 v 15 h 4.129 v 12.5 h 16.016 v 3 h 15 v -3 h 15 v 3 h 15 v -3 h 15 v 3 h 15 v -3 h 15 5.145 v -12.5 h -4.129 v -15 h 4.129 v -15 h -4.129 v -15 h 4.129 v -15 h -4.129 v -15 h 4.129 v -12.5 h -20.145 v -3 h -15 v 3 h -15 v -3 h -15 v 3 h -15 v -3 h -15 v 3 h -15 z"
       id="side2_outsideCutPath"
       stroke="#FF0000"
       stroke-width="0.1"
       style="stroke:#ff0000;stroke-width:0.1"
       vector-effect="non-scaling-stroke" />
    <path
       d="m 201.059,341.78275 v 1.594 h -9.948 v -1.48 l 3.985,-4.006 a 75.677,75.677 0 0 0 0.786,-0.806 q 1.087,-1.133 1.547,-1.733 a 5.831,5.831 0 0 0 0.069,-0.09 q 0.579,-0.787 0.869,-1.532 0.29,-0.746 0.29,-1.605 a 3.22,3.22 0 0 0 -0.101,-0.83 2.309,2.309 0 0 0 -0.634,-1.09 2.425,2.425 0 0 0 -1.099,-0.599 q -0.426,-0.11 -0.94,-0.11 a 5.128,5.128 0 0 0 -1.786,0.31 4.932,4.932 0 0 0 -0.659,0.305 q -0.322,0.176 -0.668,0.414 a 10.758,10.758 0 0 0 -0.552,0.41 l -0.911,-1.17 a 7.808,7.808 0 0 1 2.043,-1.248 6.592,6.592 0 0 1 2.512,-0.491 q 2.133,0 3.344,1.092 a 3.603,3.603 0 0 1 1.175,2.323 5.067,5.067 0 0 1 0.036,0.612 5.401,5.401 0 0 1 -0.454,2.14 6.777,6.777 0 0 1 -0.354,0.706 8.82,8.82 0 0 1 -0.603,0.902 q -0.862,1.145 -2.419,2.659 l -3.313,3.24 v 0.083 z m -50.216,1.087 v -1.594 a 8.508,8.508 0 0 0 1.747,0.65 8.889,8.889 0 0 0 0.008,0.002 q 0.937,0.238 1.806,0.238 a 6.78,6.78 0 0 0 0.772,-0.041 q 0.797,-0.092 1.298,-0.389 0.648,-0.383 0.717,-1.126 a 1.973,1.973 0 0 0 0.008,-0.183 1.372,1.372 0 0 0 -0.42,-0.993 1.966,1.966 0 0 0 -0.154,-0.141 3.096,3.096 0 0 0 -0.356,-0.246 q -0.622,-0.376 -1.831,-0.845 a 26.965,26.965 0 0 0 -0.055,-0.021 q -1.25,-0.466 -1.93,-0.839 a 4.639,4.639 0 0 1 -0.321,-0.191 3.738,3.738 0 0 1 -0.519,-0.408 q -0.291,-0.277 -0.475,-0.591 -0.326,-0.559 -0.326,-1.336 a 2.726,2.726 0 0 1 0.216,-1.101 q 0.278,-0.637 0.912,-1.088 a 3.944,3.944 0 0 1 1.195,-0.562 q 0.516,-0.15 1.129,-0.206 a 8.458,8.458 0 0 1 0.772,-0.034 9.056,9.056 0 0 1 3.581,0.745 l -0.611,1.398 a 10.755,10.755 0 0 0 -1.31,-0.45 q -0.95,-0.254 -1.785,-0.254 a 6.302,6.302 0 0 0 -0.639,0.03 q -0.757,0.077 -1.203,0.353 a 1.461,1.461 0 0 0 -0.354,0.297 1.137,1.137 0 0 0 -0.267,0.759 1.486,1.486 0 0 0 0.047,0.385 1.178,1.178 0 0 0 0.186,0.391 q 0.232,0.321 0.75,0.611 a 4.999,4.999 0 0 0 0.307,0.155 q 0.512,0.242 1.47,0.604 a 50.708,50.708 0 0 0 0.211,0.079 16.146,16.146 0 0 1 0.927,0.368 q 1.268,0.553 1.8,1.112 a 2.551,2.551 0 0 1 0.7,1.615 3.389,3.389 0 0 1 0.009,0.259 3.383,3.383 0 0 1 -0.165,1.083 2.731,2.731 0 0 1 -1.015,1.36 4.027,4.027 0 0 1 -1.215,0.587 q -0.898,0.272 -2.097,0.272 a 11.557,11.557 0 0 1 -1.314,-0.07 q -1.338,-0.153 -2.206,-0.644 z m 24.119,0.507 -0.227,-1.522 h -0.094 a 3.869,3.869 0 0 1 -2.84,1.686 5.798,5.798 0 0 1 -0.721,0.043 5.207,5.207 0 0 1 -1.501,-0.205 3.931,3.931 0 0 1 -1.961,-1.316 q -0.999,-1.23 -1.191,-3.296 a 11.15,11.15 0 0 1 -0.046,-1.031 10.196,10.196 0 0 1 0.132,-1.697 q 0.154,-0.909 0.486,-1.637 a 4.852,4.852 0 0 1 0.624,-1.024 4.048,4.048 0 0 1 2.886,-1.526 5.806,5.806 0 0 1 0.571,-0.027 q 2.309,0 3.541,1.677 h 0.134 l -0.072,-0.818 -0.042,-0.797 v -4.617 h 1.719 v 16.107 z m 14.006,-6.449 v 1.087 h -7.815 a 6.897,6.897 0 0 0 0.12,1.155 q 0.124,0.629 0.373,1.125 a 3.226,3.226 0 0 0 0.516,0.753 3.122,3.122 0 0 0 1.639,0.924 4.731,4.731 0 0 0 1.057,0.111 9.076,9.076 0 0 0 3.399,-0.673 10.399,10.399 0 0 0 0.224,-0.093 v 1.532 q -0.91,0.394 -1.723,0.564 a 7.214,7.214 0 0 1 -0.716,0.111 q -0.352,0.038 -0.751,0.052 a 14,14 0 0 1 -0.495,0.008 6.677,6.677 0 0 1 -1.671,-0.198 4.728,4.728 0 0 1 -2.299,-1.334 q -1.454,-1.532 -1.454,-4.254 a 9.023,9.023 0 0 1 0.167,-1.79 q 0.22,-1.087 0.731,-1.933 a 5.088,5.088 0 0 1 0.453,-0.635 4.403,4.403 0 0 1 3.209,-1.601 6.074,6.074 0 0 1 0.419,-0.014 q 2.133,0 3.375,1.402 a 4.805,4.805 0 0 1 1.088,2.196 6.994,6.994 0 0 1 0.154,1.505 z m -25.599,-4.896 v 11.345 h -1.719 v -11.345 z m 11.272,6.066 v -0.362 q 0,-2.049 -0.578,-3.101 a 2.575,2.575 0 0 0 -0.224,-0.341 q -0.719,-0.924 -2.208,-1.019 a 5.528,5.528 0 0 0 -0.354,-0.011 3.083,3.083 0 0 0 -1.032,0.164 2.563,2.563 0 0 0 -1.281,1.011 4.049,4.049 0 0 0 -0.52,1.114 q -0.159,0.524 -0.229,1.155 a 9.585,9.585 0 0 0 -0.054,1.048 9.496,9.496 0 0 0 0.071,1.197 q 0.166,1.306 0.726,2.085 a 2.589,2.589 0 0 0 1.876,1.08 3.849,3.849 0 0 0 0.464,0.027 5.103,5.103 0 0 0 0.936,-0.08 q 0.518,-0.097 0.918,-0.311 a 2.312,2.312 0 0 0 0.698,-0.566 q 0.791,-0.958 0.791,-3.09 z m 6.553,-1.48 h 5.931 q 0,-1.626 -0.724,-2.49 a 2.354,2.354 0 0 0 -1.418,-0.807 3.531,3.531 0 0 0 -0.653,-0.057 3.387,3.387 0 0 0 -0.978,0.134 2.617,2.617 0 0 0 -1.201,0.756 q -0.735,0.805 -0.923,2.17 a 6.492,6.492 0 0 0 -0.034,0.294 z m -19.665,-7.975 a 1.904,1.904 0 0 0 -0.024,0.314 2.029,2.029 0 0 0 0.009,0.194 q 0.042,0.436 0.281,0.671 a 0.964,0.964 0 0 0 0.349,0.222 1.092,1.092 0 0 0 0.376,0.062 q 0.414,0 0.714,-0.284 a 0.839,0.839 0 0 0 0.164,-0.217 q 0.075,-0.141 0.108,-0.322 a 1.778,1.778 0 0 0 0.028,-0.326 1.966,1.966 0 0 0 -0.008,-0.186 q -0.042,-0.44 -0.292,-0.673 -0.3,-0.279 -0.714,-0.279 a 1.312,1.312 0 0 0 -0.087,0.003 0.994,0.994 0 0 0 -0.638,0.271 0.804,0.804 0 0 0 -0.177,0.252 q -0.061,0.131 -0.089,0.298 z"
       id="side2_labelLayer"
       stroke="#777777"
       fill="#777777"
       style="fill:#777777;stroke:#777777"
       vector-effect="non-scaling-stroke" />
    <path
       d="m 240.709,394.42675 v 12.5 h -4.129 v 15 h 4.129 v 15 h -4.129 v 15 h 4.129 v 15 h -4.129 v 15 h 4.129 v 12.5 h 16.016 v 3 h 15 v -3 h 15 v 3 h 15 v -3 h 15 v 3 h 15 v -3 h 15 5.145 v -12.5 h -4.129 v -15 h 4.129 v -15 h -4.129 v -15 h 4.129 v -15 h -4.129 v -15 h 4.129 v -12.5 h -20.145 v -3 h -15 v 3 h -15 v -3 h -15 v 3 h -15 v -3 h -15 v 3 h -15 z"
       id="side4_outsideCutPath"
       stroke="#FF0000"
       stroke-width="0.1"
       style="stroke:#ff0000;stroke-width:0.1"
       vector-effect="non-scaling-stroke" />
    <path
       d="m 268.776,451.86975 v -1.594 a 8.508,8.508 0 0 0 1.747,0.65 8.889,8.889 0 0 0 0.008,0.002 q 0.937,0.238 1.806,0.238 a 6.78,6.78 0 0 0 0.772,-0.041 q 0.797,-0.092 1.298,-0.389 0.648,-0.383 0.717,-1.126 a 1.973,1.973 0 0 0 0.008,-0.183 1.372,1.372 0 0 0 -0.42,-0.993 1.966,1.966 0 0 0 -0.154,-0.141 3.096,3.096 0 0 0 -0.356,-0.246 q -0.622,-0.376 -1.83,-0.845 a 26.965,26.965 0 0 0 -0.056,-0.021 q -1.25,-0.466 -1.93,-0.839 a 4.639,4.639 0 0 1 -0.321,-0.191 3.738,3.738 0 0 1 -0.519,-0.408 q -0.291,-0.277 -0.475,-0.591 -0.326,-0.559 -0.326,-1.336 a 2.726,2.726 0 0 1 0.216,-1.101 q 0.278,-0.637 0.912,-1.088 a 3.944,3.944 0 0 1 1.195,-0.562 q 0.516,-0.15 1.129,-0.206 a 8.458,8.458 0 0 1 0.772,-0.034 9.056,9.056 0 0 1 3.581,0.745 l -0.611,1.398 a 10.755,10.755 0 0 0 -1.31,-0.45 q -0.95,-0.254 -1.785,-0.254 a 6.302,6.302 0 0 0 -0.639,0.03 q -0.757,0.077 -1.203,0.353 a 1.461,1.461 0 0 0 -0.354,0.297 1.137,1.137 0 0 0 -0.267,0.759 1.486,1.486 0 0 0 0.048,0.385 1.178,1.178 0 0 0 0.185,0.391 q 0.233,0.321 0.75,0.611 a 4.999,4.999 0 0 0 0.307,0.155 q 0.512,0.242 1.47,0.604 a 50.708,50.708 0 0 0 0.211,0.079 16.146,16.146 0 0 1 0.927,0.368 q 1.268,0.553 1.8,1.112 a 2.551,2.551 0 0 1 0.7,1.615 3.389,3.389 0 0 1 0.009,0.259 3.383,3.383 0 0 1 -0.165,1.083 2.731,2.731 0 0 1 -1.015,1.36 4.027,4.027 0 0 1 -1.215,0.587 q -0.898,0.272 -2.097,0.272 a 11.557,11.557 0 0 1 -1.314,-0.07 q -1.338,-0.153 -2.206,-0.644 z m 24.119,0.507 -0.227,-1.522 h -0.094 a 3.869,3.869 0 0 1 -2.84,1.686 5.798,5.798 0 0 1 -0.721,0.043 5.207,5.207 0 0 1 -1.501,-0.205 3.931,3.931 0 0 1 -1.961,-1.316 q -0.999,-1.23 -1.191,-3.296 a 11.15,11.15 0 0 1 -0.046,-1.031 10.196,10.196 0 0 1 0.132,-1.697 q 0.154,-0.909 0.486,-1.637 a 4.852,4.852 0 0 1 0.624,-1.024 4.048,4.048 0 0 1 2.886,-1.526 5.806,5.806 0 0 1 0.571,-0.027 q 2.309,0 3.541,1.677 h 0.134 l -0.072,-0.818 -0.042,-0.797 v -4.617 h 1.719 v 16.107 z m 14.006,-6.449 v 1.087 h -7.815 a 6.897,6.897 0 0 0 0.12,1.155 q 0.124,0.629 0.373,1.125 a 3.226,3.226 0 0 0 0.516,0.753 3.122,3.122 0 0 0 1.639,0.924 4.731,4.731 0 0 0 1.057,0.111 9.076,9.076 0 0 0 3.399,-0.673 10.399,10.399 0 0 0 0.224,-0.093 v 1.532 q -0.91,0.394 -1.723,0.564 a 7.214,7.214 0 0 1 -0.716,0.111 q -0.352,0.038 -0.751,0.052 a 14,14 0 0 1 -0.495,0.008 6.677,6.677 0 0 1 -1.671,-0.198 4.728,4.728 0 0 1 -2.299,-1.334 q -1.454,-1.532 -1.454,-4.254 a 9.023,9.023 0 0 1 0.167,-1.79 q 0.22,-1.087 0.731,-1.933 a 5.088,5.088 0 0 1 0.453,-0.635 4.403,4.403 0 0 1 3.209,-1.601 6.074,6.074 0 0 1 0.419,-0.014 q 2.133,0 3.375,1.402 a 4.805,4.805 0 0 1 1.088,2.196 6.994,6.994 0 0 1 0.154,1.505 z m 12.805,1.408 v 1.563 h -2.246 v 3.478 h -1.646 v -3.478 h -7.36 v -1.501 l 7.184,-10.238 h 1.822 v 10.176 z m -38.404,-6.304 v 11.345 h -1.719 v -11.345 z m 11.272,6.066 v -0.362 q 0,-2.049 -0.578,-3.101 a 2.575,2.575 0 0 0 -0.224,-0.341 q -0.719,-0.924 -2.208,-1.019 a 5.528,5.528 0 0 0 -0.354,-0.011 3.083,3.083 0 0 0 -1.032,0.164 2.563,2.563 0 0 0 -1.281,1.011 4.049,4.049 0 0 0 -0.52,1.114 q -0.159,0.524 -0.229,1.155 a 9.585,9.585 0 0 0 -0.054,1.048 9.496,9.496 0 0 0 0.071,1.197 q 0.166,1.306 0.726,2.085 a 2.589,2.589 0 0 0 1.876,1.08 3.849,3.849 0 0 0 0.464,0.027 5.103,5.103 0 0 0 0.936,-0.08 q 0.518,-0.097 0.918,-0.311 a 2.312,2.312 0 0 0 0.698,-0.566 q 0.791,-0.958 0.791,-3.09 z m 17.598,0.238 h 5.642 v -5.031 a 50.493,50.493 0 0 1 0.022,-1.472 q 0.023,-0.771 0.068,-1.626 a 83.096,83.096 0 0 1 0.013,-0.245 h -0.083 a 21.339,21.339 0 0 1 -0.364,0.697 q -0.185,0.338 -0.36,0.624 a 10.253,10.253 0 0 1 -0.207,0.324 z m -11.045,-1.718 h 5.931 q 0,-1.626 -0.724,-2.49 a 2.354,2.354 0 0 0 -1.418,-0.807 3.531,3.531 0 0 0 -0.653,-0.057 3.387,3.387 0 0 0 -0.978,0.134 2.617,2.617 0 0 0 -1.201,0.756 q -0.735,0.805 -0.923,2.17 a 6.492,6.492 0 0 0 -0.034,0.294 z m -19.664,-7.975 a 1.904,1.904 0 0 0 -0.025,0.314 2.029,2.029 0 0 0 0.009,0.194 q 0.042,0.436 0.281,0.671 a 0.964,0.964 0 0 0 0.349,0.222 1.092,1.092 0 0 0 0.376,0.062 q 0.414,0 0.714,-0.284 a 0.839,0.839 0 0 0 0.164,-0.217 q 0.075,-0.141 0.108,-0.322 a 1.778,1.778 0 0 0 0.028,-0.326 1.966,1.966 0 0 0 -0.008,-0.186 q -0.042,-0.44 -0.292,-0.673 -0.3,-0.279 -0.714,-0.279 a 1.312,1.312 0 0 0 -0.087,0.003 0.994,0.994 0 0 0 -0.638,0.271 0.804,0.804 0 0 0 -0.177,0.252 q -0.061,0.131 -0.088,0.298 z"
       id="side4_labelLayer"
       stroke="#777777"
       fill="#777777"
       style="fill:#777777;stroke:#777777"
       vector-effect="non-scaling-stroke" />
    <path
       d="M 94.694008,-1.3000001e-7 110.204,11.268 l -1.764,2.427 12.136,8.817 1.763,-2.42699 12.135,8.81699 -1.763,2.42701 12.135,8.816 1.763,-2.42701 12.136,8.817 -1.764,2.427 12.136,8.817 1.763,-2.427 12.135,8.81701 3.374,2.45099 -5.924,18.232 -2.853,-0.927 -4.635,14.266 2.853,0.927 -4.635,14.266 -2.854,-0.92699 -4.635,14.26599 2.853,0.92701 -4.635,14.26499 -2.853,-0.927 -4.635,14.266 2.853,0.927 -4.635,14.266 -1.289,3.966 h -19.171 v -3 h -15 v 3 h -15 v -3 H 87.194008 v 3 h -15 v -3 h -15 v 3 h -15 -4.17 l -5.924,-18.232 2.853,-0.927 -4.635,-14.266 -2.853,0.927 -4.635,-14.26499 2.853,-0.92701 -4.635,-14.26599 -2.854,0.92699 -4.635,-14.266 2.853,-0.927 -4.635,-14.266 -2.8529996,0.927 -4.6349999,-14.266 -1.289,-3.966 15.5089995,-11.268 1.763,2.427 12.136,-8.817 -1.764,-2.427 12.136,-8.817 1.763,2.42701 12.135,-8.816 -1.763,-2.42701 12.135,-8.81699 1.763,2.42699 12.136,-8.817 -1.764,-2.427 12.136,-8.8170001 z"
       id="top_outsideCutPath"
       stroke="#FF0000"
       stroke-width="0.1"
       style="fill:none;stroke:#ff0000;stroke-width:0.1;stroke-opacity:1"
       vector-effect="non-scaling-stroke" />
    <path
       d="m 390.77934,186.24299 15.51,11.268 -1.764,2.427 12.136,8.817 1.763,-2.427 12.135,8.817 -1.763,2.427 12.135,8.816 1.763,-2.427 12.136,8.817 -1.764,2.427 12.136,8.817 1.763,-2.427 12.135,8.817 3.374,2.451 -5.924,18.232 -2.853,-0.927 -4.635,14.266 2.853,0.927 -4.635,14.266 -2.854,-0.927 -4.635,14.266 2.853,0.927 -4.635,14.265 -2.853,-0.927 -4.635,14.266 2.853,0.927 -4.635,14.266 -1.289,3.966 h -19.171 v -3 h -15 v 3 h -15 v -3 h -15 v 3 h -15 v -3 h -15 v 3 h -15 -4.17 l -5.924,-18.232 2.853,-0.927 -4.635,-14.266 -2.853,0.927 -4.635,-14.265 2.853,-0.927 -4.635,-14.266 -2.854,0.927 -4.635,-14.266 2.853,-0.927 -4.635,-14.266 -2.853,0.927 -4.635,-14.266 -1.289,-3.966 15.509,-11.268 1.763,2.427 12.136,-8.817 -1.764,-2.427 12.136,-8.817 1.763,2.427 12.135,-8.816 -1.763,-2.427 12.135,-8.817 1.763,2.427 12.136,-8.817 -1.764,-2.427 12.136,-8.817 z"
       id="bottom_outsideCutPath"
       stroke="#FF0000"
       stroke-width="0.1"
       style="stroke:#ff0000;stroke-width:0.1"
       vector-effect="non-scaling-stroke" />
    <path
       d="m 448.16234,295.73699 h -2.827 v -12.144 a 8.341,8.341 0 0 0 -0.084,-1.227 q -0.199,-1.336 -0.87,-2.12 a 2.975,2.975 0 0 0 -1.383,-0.895 q -0.686,-0.221 -1.581,-0.221 a 7.275,7.275 0 0 0 -1.481,0.141 q -1.543,0.321 -2.419,1.375 a 4.672,4.672 0 0 0 -0.793,1.434 q -0.464,1.303 -0.468,3.204 a 15.704,15.704 0 0 0 0,0.029 v 10.424 h -2.827 v -12.144 a 8.341,8.341 0 0 0 -0.084,-1.227 q -0.199,-1.336 -0.87,-2.12 a 2.966,2.966 0 0 0 -1.364,-0.887 q -0.491,-0.161 -1.091,-0.209 a 6.621,6.621 0 0 0 -0.526,-0.02 q -2.657,0 -3.892,1.593 -1.234,1.592 -1.234,5.22 v 9.794 h -2.828 v -18.668 h 2.3 l 0.459,2.555 h 0.137 a 5.557,5.557 0 0 1 2.257,-2.129 6.713,6.713 0 0 1 2.651,-0.744 8.108,8.108 0 0 1 0.61,-0.022 9.257,9.257 0 0 1 2.084,0.217 q 1.282,0.296 2.175,0.998 a 4.827,4.827 0 0 1 1.464,1.953 h 0.136 a 5.903,5.903 0 0 1 2.224,-2.208 7.093,7.093 0 0 1 0.195,-0.109 7.156,7.156 0 0 1 2.625,-0.798 8.923,8.923 0 0 1 0.986,-0.053 9.828,9.828 0 0 1 1.783,0.151 q 0.991,0.183 1.764,0.588 a 4.66,4.66 0 0 1 1.197,0.887 4.869,4.869 0 0 1 1.045,1.71 q 0.282,0.754 0.414,1.693 a 12.968,12.968 0 0 1 0.116,1.801 z m -111.938,-2.402 h -0.204 l -0.596,2.402 h -2.027 v -26.503 h 2.827 v 6.439 a 58.949,58.949 0 0 1 -0.032,1.991 q -0.034,1.005 -0.104,1.892 h 0.136 q 1.976,-2.793 5.859,-2.793 a 8.642,8.642 0 0 1 2.432,0.324 6.469,6.469 0 0 1 3.283,2.188 8.332,8.332 0 0 1 1.461,2.814 q 0.574,1.854 0.574,4.297 a 16.578,16.578 0 0 1 -0.219,2.789 q -0.452,2.643 -1.833,4.356 a 6.693,6.693 0 0 1 -4.758,2.502 9.59,9.59 0 0 1 -0.94,0.045 8.576,8.576 0 0 1 -2.155,-0.263 7.462,7.462 0 0 1 -1.175,-0.41 6.262,6.262 0 0 1 -2.529,-2.07 z m 48.202,0.068 v 2.164 q -0.415,0.2 -1.185,0.337 a 10.574,10.574 0 0 1 -0.169,0.029 12.255,12.255 0 0 1 -0.799,0.104 q -0.377,0.035 -0.715,0.04 a 7.248,7.248 0 0 1 -0.095,10e-4 q -4.32,0 -5.195,-3.63 a 8.887,8.887 0 0 1 -0.222,-2.076 v -11.106 h -2.674 v -1.362 l 2.674,-1.175 1.193,-3.986 h 1.635 v 4.326 h 5.416 v 2.197 h -5.416 v 10.986 q 0,1.185 0.395,1.983 a 2.743,2.743 0 0 0 0.405,0.606 2.627,2.627 0 0 0 1.615,0.86 3.779,3.779 0 0 0 0.582,0.043 9.286,9.286 0 0 0 1.361,-0.097 8.56,8.56 0 0 0 0.087,-0.014 q 0.698,-0.11 1.107,-0.23 z m 12.315,0 v 2.164 q -0.416,0.2 -1.185,0.337 a 10.574,10.574 0 0 1 -0.169,0.029 12.255,12.255 0 0 1 -0.799,0.104 q -0.377,0.035 -0.715,0.04 a 7.248,7.248 0 0 1 -0.096,10e-4 q -4.32,0 -5.194,-3.63 a 8.887,8.887 0 0 1 -0.222,-2.076 v -11.106 h -2.674 v -1.362 l 2.674,-1.175 1.192,-3.986 h 1.635 v 4.326 h 5.417 v 2.197 h -5.417 v 10.986 q 0,1.185 0.395,1.983 a 2.743,2.743 0 0 0 0.406,0.606 2.627,2.627 0 0 0 1.614,0.86 3.779,3.779 0 0 0 0.583,0.043 9.286,9.286 0 0 0 1.36,-0.097 8.56,8.56 0 0 0 0.088,-0.014 q 0.698,-0.11 1.107,-0.23 z m -26.115,-4.176 a 14.605,14.605 0 0 0 0.259,-2.841 16.594,16.594 0 0 0 -0.006,-0.449 q -0.111,-4.129 -2.302,-6.602 a 7.402,7.402 0 0 0 -3.436,-2.217 9.501,9.501 0 0 0 -2.789,-0.389 10.981,10.981 0 0 0 -1.972,0.169 7.479,7.479 0 0 0 -4.364,2.377 7.811,7.811 0 0 0 -0.959,1.33 q -1.323,2.306 -1.323,5.781 a 14.144,14.144 0 0 0 0.177,2.291 10.46,10.46 0 0 0 0.879,2.853 9.293,9.293 0 0 0 0.205,0.403 7.655,7.655 0 0 0 2.792,2.969 7.873,7.873 0 0 0 1.807,0.804 9.08,9.08 0 0 0 2.639,0.372 10.979,10.979 0 0 0 1.917,-0.161 7.538,7.538 0 0 0 4.436,-2.403 7.887,7.887 0 0 0 0.939,-1.29 q 0.766,-1.311 1.101,-2.997 z m 45.698,0 a 14.605,14.605 0 0 0 0.26,-2.841 16.594,16.594 0 0 0 -0.006,-0.449 q -0.112,-4.129 -2.302,-6.602 a 7.402,7.402 0 0 0 -3.436,-2.217 9.501,9.501 0 0 0 -2.79,-0.389 10.981,10.981 0 0 0 -1.972,0.169 7.479,7.479 0 0 0 -4.364,2.377 7.811,7.811 0 0 0 -0.959,1.33 q -1.323,2.306 -1.323,5.781 a 14.144,14.144 0 0 0 0.178,2.291 10.46,10.46 0 0 0 0.878,2.853 9.293,9.293 0 0 0 0.206,0.403 7.655,7.655 0 0 0 2.792,2.969 7.873,7.873 0 0 0 1.807,0.804 9.08,9.08 0 0 0 2.638,0.372 10.979,10.979 0 0 0 1.917,-0.161 7.538,7.538 0 0 0 4.436,-2.403 7.887,7.887 0 0 0 0.939,-1.29 q 0.767,-1.311 1.101,-2.997 z m -59.661,-2.841 a 14.318,14.318 0 0 0 0.136,2.045 q 0.151,1.039 0.467,1.88 a 5.932,5.932 0 0 0 0.828,1.525 4.634,4.634 0 0 0 3.018,1.778 7.022,7.022 0 0 0 1.189,0.096 6.567,6.567 0 0 0 1.733,-0.215 4.57,4.57 0 0 0 2.483,-1.65 q 1.07,-1.387 1.344,-3.73 a 14.893,14.893 0 0 0 0.095,-1.729 14.108,14.108 0 0 0 -0.134,-2.01 q -0.148,-1.024 -0.458,-1.853 a 5.821,5.821 0 0 0 -0.847,-1.545 q -1.44,-1.848 -4.25,-1.848 a 6.729,6.729 0 0 0 -1.675,0.196 4.503,4.503 0 0 0 -2.515,1.627 5.846,5.846 0 0 0 -0.909,1.756 q -0.268,0.807 -0.394,1.794 a 14.941,14.941 0 0 0 -0.111,1.883 z m 45.699,0 a 14.318,14.318 0 0 0 0.136,2.045 q 0.15,1.039 0.466,1.88 a 5.932,5.932 0 0 0 0.828,1.525 4.634,4.634 0 0 0 3.018,1.778 7.022,7.022 0 0 0 1.189,0.096 6.567,6.567 0 0 0 1.733,-0.215 4.57,4.57 0 0 0 2.483,-1.65 q 1.07,-1.387 1.345,-3.73 a 14.893,14.893 0 0 0 0.094,-1.729 14.108,14.108 0 0 0 -0.133,-2.01 q -0.148,-1.024 -0.459,-1.853 a 5.821,5.821 0 0 0 -0.847,-1.545 q -1.439,-1.848 -4.25,-1.848 a 6.729,6.729 0 0 0 -1.675,0.196 4.503,4.503 0 0 0 -2.515,1.627 5.846,5.846 0 0 0 -0.908,1.756 q -0.269,0.807 -0.394,1.794 a 14.941,14.941 0 0 0 -0.111,1.883 z m -60.687,-7.256 a 7.945,7.945 0 0 0 -1.539,0.139 q -0.877,0.173 -1.542,0.563 a 3.76,3.76 0 0 0 -1.092,0.959 4.84,4.84 0 0 0 -0.701,1.334 q -0.577,1.617 -0.577,4.261 a 18.695,18.695 0 0 0 0.093,1.932 q 0.203,1.95 0.853,3.136 a 4.264,4.264 0 0 0 0.366,0.561 4.102,4.102 0 0 0 2.08,1.404 q 0.928,0.291 2.127,0.291 a 5.636,5.636 0 0 0 1.601,-0.214 4.066,4.066 0 0 0 2.282,-1.685 6.49,6.49 0 0 0 0.803,-1.737 q 0.252,-0.825 0.37,-1.824 a 16.201,16.201 0 0 0 0.105,-1.898 16.705,16.705 0 0 0 -0.101,-1.904 q -0.24,-2.082 -1.047,-3.338 a 4.691,4.691 0 0 0 -0.13,-0.191 4.123,4.123 0 0 0 -2.625,-1.662 6.539,6.539 0 0 0 -1.326,-0.127 z"
       id="bottom_labelLayer"
       stroke="#777777"
       fill="#777777"
       style="fill:#777777;stroke:#777777"
       vector-effect="non-scaling-stroke" />
    <path
       d="m 278.083,0 15.51,11.268 -1.764,2.427 12.136,8.817 1.763,-2.427 12.135,8.817 -1.763,2.427 12.135,8.816 1.763,-2.427 12.136,8.817 -1.764,2.427 12.136,8.817 1.763,-2.427 12.135,8.817 3.374,2.451 -5.924,18.232 -2.853,-0.927 -4.635,14.266 2.853,0.927 -4.635,14.266 -2.854,-0.927 -4.635,14.266 2.853,0.927 -4.635,14.265 -2.853,-0.927 -4.635,14.266 2.853,0.927 -4.635,14.266 -1.289,3.966 h -19.171 v -3 h -15 v 3 h -15 v -3 h -15 v 3 h -15 v -3 h -15 v 3 h -15 -4.17 l -5.924,-18.23199 2.853,-0.92701 -4.635,-14.266 -2.853,0.927 -4.635,-14.26499 2.853,-0.92701 -4.635,-14.266 -2.854,0.927 -4.635,-14.266 2.853,-0.927 -4.635,-14.26599 -2.853,0.92699 -4.635,-14.26599 -1.289,-3.96601 15.509,-11.268 1.763,2.427 12.136,-8.817 -1.764,-2.427 12.136,-8.817 1.763,2.427 12.135,-8.816 -1.763,-2.427 12.135,-8.817 1.763,2.427 12.136,-8.817 -1.764,-2.427 12.136,-8.817 z"
       id="top_outsideCutPath-3"
       stroke="#FF0000"
       stroke-width="0.1"
       style="fill:none;stroke:#ff0000;stroke-width:0.1;stroke-opacity:1"
       vector-effect="non-scaling-stroke" />
    <rect
       style="opacity:1;fill:none;stroke:#ff0000;stroke-width:0.143;stroke-miterlimit:4;stroke-dasharray:none;stroke-opacity:1"
       id="rect1477"
       width="20.144999"
       height="3"
       x="213.435"
       y="294.92676" />
    <rect
       style="opacity:1;fill:none;stroke:#ff0000;stroke-width:0.143;stroke-miterlimit:4;stroke-dasharray:none;stroke-opacity:1"
       id="rect1479"
       width="15"
       height="3"
       x="183.43501"
       y="294.92676" />
    <rect
       style="opacity:1;fill:none;stroke:#ff0000;stroke-width:0.143;stroke-miterlimit:4;stroke-dasharray:none;stroke-opacity:1"
       id="rect1481"
       width="15"
       height="3"
       x="153.435"
       y="294.92676" />
    <rect
       style="opacity:1;fill:none;stroke:#ff0000;stroke-width:0.143;stroke-miterlimit:4;stroke-dasharray:none;stroke-opacity:1"
       id="rect1483"
       width="16.015999"
       height="3"
       x="122.41901"
       y="294.92676" />
    <rect
       style="fill:none;stroke:#ff0000;stroke-width:0.143;stroke-miterlimit:4;stroke-dasharray:none;stroke-opacity:1"
       id="rect1477-6"
       width="20.144999"
       height="3"
       x="95.144981"
       y="294.92676" />
    <rect
       style="fill:none;stroke:#ff0000;stroke-width:0.143;stroke-miterlimit:4;stroke-dasharray:none;stroke-opacity:1"
       id="rect1479-7"
       width="15"
       height="3"
       x="65.144997"
       y="294.92676" />
    <rect
       style="fill:none;stroke:#ff0000;stroke-width:0.143;stroke-miterlimit:4;stroke-dasharray:none;stroke-opacity:1"
       id="rect1481-5"
       width="15"
       height="3"
       x="35.144993"
       y="294.92676" />
    <rect
       style="fill:none;stroke:#ff0000;stroke-width:0.143;stroke-miterlimit:4;stroke-dasharray:none;stroke-opacity:1"
       id="rect1483-3"
       width="16.015999"
       height="3"
       x="4.1290002"
       y="294.92676" />
    <rect
       style="fill:none;stroke:#ff0000;stroke-width:0.143;stroke-miterlimit:4;stroke-dasharray:none;stroke-opacity:1"
       id="rect1477-5"
       width="20.144999"
       height="3"
       x="95.144981"
       y="403.92676" />
    <rect
       style="fill:none;stroke:#ff0000;stroke-width:0.143;stroke-miterlimit:4;stroke-dasharray:none;stroke-opacity:1"
       id="rect1479-6"
       width="15"
       height="3"
       x="65.144997"
       y="403.92676" />
    <rect
       style="fill:none;stroke:#ff0000;stroke-width:0.143;stroke-miterlimit:4;stroke-dasharray:none;stroke-opacity:1"
       id="rect1481-2"
       width="15"
       height="3"
       x="35.144985"
       y="403.92676" />
    <rect
       style="fill:none;stroke:#ff0000;stroke-width:0.143;stroke-miterlimit:4;stroke-dasharray:none;stroke-opacity:1"
       id="rect1483-9"
       width="16.015999"
       height="3"
       x="4.1290002"
       y="403.92676" />
    <rect
       style="fill:none;stroke:#ff0000;stroke-width:0.143;stroke-miterlimit:4;stroke-dasharray:none;stroke-opacity:1"
       id="rect1477-1"
       width="20.144999"
       height="3"
       x="213.435"
       y="403.92676" />
    <rect
       style="fill:none;stroke:#ff0000;stroke-width:0.143;stroke-miterlimit:4;stroke-dasharray:none;stroke-opacity:1"
       id="rect1479-2"
       width="15"
       height="3"
       x="183.43501"
       y="403.92676" />
    <rect
       style="fill:none;stroke:#ff0000;stroke-width:0.143;stroke-miterlimit:4;stroke-dasharray:none;stroke-opacity:1"
       id="rect1481-7"
       width="15"
       height="3"
       x="153.435"
       y="403.92676" />
    <rect
       style="fill:none;stroke:#ff0000;stroke-width:0.143;stroke-miterlimit:4;stroke-dasharray:none;stroke-opacity:1"
       id="rect1483-0"
       width="16.015999"
       height="3"
       x="122.41901"
       y="403.92676" />
    <rect
       style="fill:none;stroke:#ff0000;stroke-width:0.143;stroke-miterlimit:4;stroke-dasharray:none;stroke-opacity:1"
       id="rect1477-9"
       width="20.144999"
       height="3"
       x="331.72501"
       y="403.92676" />
    <rect
       style="fill:none;stroke:#ff0000;stroke-width:0.143;stroke-miterlimit:4;stroke-dasharray:none;stroke-opacity:1"
       id="rect1479-3"
       width="15"
       height="3"
       x="301.72504"
       y="403.92676" />
    <rect
       style="fill:none;stroke:#ff0000;stroke-width:0.143;stroke-miterlimit:4;stroke-dasharray:none;stroke-opacity:1"
       id="rect1481-6"
       width="15"
       height="3"
       x="271.72504"
       y="403.92676" />
    <rect
       style="fill:none;stroke:#ff0000;stroke-width:0.143;stroke-miterlimit:4;stroke-dasharray:none;stroke-opacity:1"
       id="rect1483-06"
       width="16.015999"
       height="3"
       x="240.70903"
       y="403.92676" />
    <circle
       style="opacity:1;fill:none;stroke:#ff0000;stroke-width:0.0911298;stroke-miterlimit:4;stroke-dasharray:none;stroke-opacity:1"
       id="path1595"
       cy="99.308815"
       cx="278.0835"
       r="22.454435" />
  </g>
  <ellipse
     style="opacity:1;fill:#ffffff;stroke:#fa0000;stroke-width:0.143;stroke-miterlimit:4;stroke-dasharray:none;stroke-opacity:1;marker-end:url(#marker1235)"
     id="path915"
     cx="94.367157"
     cy="99.08123"
     rx="47.10218"
     ry="47.428684"
     inkscape:transform-center-x="0.41419486"
     inkscape:transform-center-y="-1.1841575" />
</svg>
