<?xml version="1.0" encoding="UTF-8" standalone="no"?>
<svg
   xmlns:dc="http://purl.org/dc/elements/1.1/"
   xmlns:cc="http://creativecommons.org/ns#"
   xmlns:rdf="http://www.w3.org/1999/02/22-rdf-syntax-ns#"
   xmlns:svg="http://www.w3.org/2000/svg"
   xmlns="http://www.w3.org/2000/svg"
   xmlns:sodipodi="http://sodipodi.sourceforge.net/DTD/sodipodi-0.dtd"
   xmlns:inkscape="http://www.inkscape.org/namespaces/inkscape"
   width="290mm"
   height="190mm"
   viewBox="0 0 290 190"
   version="1.1"
   id="svg5443"
   inkscape:version="1.0.2-2 (e86c870879, 2021-01-15)"
   sodipodi:docname="tapa perforación bombilla.svg">
  <defs
     id="defs5437" />
  <sodipodi:namedview
     id="base"
     pagecolor="#ffffff"
     bordercolor="#666666"
     borderopacity="1.0"
     inkscape:pageopacity="0.0"
     inkscape:pageshadow="2"
     inkscape:zoom="0.7"
     inkscape:cx="447.34467"
     inkscape:cy="507.22573"
     inkscape:document-units="mm"
     inkscape:current-layer="layer1"
     inkscape:document-rotation="0"
     showgrid="false"
     inkscape:window-width="1920"
     inkscape:window-height="1017"
     inkscape:window-x="-8"
     inkscape:window-y="-8"
     inkscape:window-maximized="1" />
  <metadata
     id="metadata5440">
    <rdf:RDF>
      <cc:Work
         rdf:about="">
        <dc:format>image/svg+xml</dc:format>
        <dc:type
           rdf:resource="http://purl.org/dc/dcmitype/StillImage" />
        <dc:title></dc:title>
      </cc:Work>
    </rdf:RDF>
  </metadata>
  <g
     inkscape:label="Capa 1"
     inkscape:groupmode="layer"
     id="layer1">
    <path
       d="m 142.11855,8.8053547 15.51,11.2680003 -1.764,2.427 12.136,8.817 1.763,-2.427 12.135,8.817 -1.763,2.427 12.135,8.816 1.763,-2.427 12.136,8.817 -1.764,2.427 12.136,8.817001 1.763,-2.427 12.135,8.817 3.374,2.451 -5.924,18.232 -2.853,-0.927 -4.635,14.266004 2.853,0.927 -4.635,14.266 -2.854,-0.927 -4.635,14.266 2.853,0.927 -4.635,14.265 -2.853,-0.927 -4.635,14.266 2.853,0.927 -4.635,14.266 -1.289,3.966 h -19.171 v -3 h -15 v 3 h -15 v -3 h -15 v 3 h -15 v -3 h -15 v 3 h -15 -4.17 l -5.924,-18.23199 2.853,-0.92701 -4.635,-14.266 -2.853,0.927 -4.635,-14.26499 2.853,-0.92701 -4.635,-14.266 -2.854,0.927 -4.635,-14.266 2.853,-0.927 -4.635,-14.265994 -2.853,0.92699 -4.635,-14.26599 -1.289,-3.96601 15.509,-11.268 1.763,2.427 12.136,-8.817001 -1.764,-2.427 12.136,-8.817 1.763,2.427 12.135,-8.816 -1.763,-2.427 12.135,-8.817 1.763,2.427 12.136,-8.817 -1.764,-2.427 12.136,-8.817 z"
       id="top_outsideCutPath-3"
       stroke="#FF0000"
       stroke-width="0.1"
       style="fill:none;stroke:#ff0000;stroke-width:0.25;stroke-opacity:1;stroke-miterlimit:4;stroke-dasharray:none"
       vector-effect="non-scaling-stroke" />
    <circle
       style="fill:none;stroke:#ff0000;stroke-width:0.25;stroke-miterlimit:4;stroke-dasharray:none;stroke-opacity:1"
       id="path1595"
       cy="108.11417"
       cx="142.11903"
       r="22.454435" />
  </g>
</svg>
