<?xml version="1.0" encoding="UTF-8" standalone="no"?>
<svg
   xmlns:dc="http://purl.org/dc/elements/1.1/"
   xmlns:cc="http://creativecommons.org/ns#"
   xmlns:rdf="http://www.w3.org/1999/02/22-rdf-syntax-ns#"
   xmlns:svg="http://www.w3.org/2000/svg"
   xmlns="http://www.w3.org/2000/svg"
   xmlns:sodipodi="http://sodipodi.sourceforge.net/DTD/sodipodi-0.dtd"
   xmlns:inkscape="http://www.inkscape.org/namespaces/inkscape"
   width="250mm"
   height="200mm"
   viewBox="0 0 250 200"
   version="1.1"
   id="svg4834"
   inkscape:version="1.0.2-2 (e86c870879, 2021-01-15)"
   sodipodi:docname="tapa perforación botella.svg">
  <defs
     id="defs4828" />
  <sodipodi:namedview
     id="base"
     pagecolor="#ffffff"
     bordercolor="#666666"
     borderopacity="1.0"
     inkscape:pageopacity="0.0"
     inkscape:pageshadow="2"
     inkscape:zoom="0.98994949"
     inkscape:cx="419.06495"
     inkscape:cy="389.29397"
     inkscape:document-units="mm"
     inkscape:current-layer="layer1"
     inkscape:document-rotation="0"
     showgrid="false"
     inkscape:window-width="1920"
     inkscape:window-height="1017"
     inkscape:window-x="-8"
     inkscape:window-y="-8"
     inkscape:window-maximized="1" />
  <metadata
     id="metadata4831">
    <rdf:RDF>
      <cc:Work
         rdf:about="">
        <dc:format>image/svg+xml</dc:format>
        <dc:type
           rdf:resource="http://purl.org/dc/dcmitype/StillImage" />
        <dc:title></dc:title>
      </cc:Work>
    </rdf:RDF>
  </metadata>
  <g
     inkscape:label="Capa 1"
     inkscape:groupmode="layer"
     id="layer1">
    <path
       d="m 128.02161,7.4246193 15.50999,11.2679997 -1.764,2.427 12.136,8.817 1.763,-2.42699 12.135,8.81699 -1.763,2.42701 12.135,8.816 1.763,-2.42701 12.136,8.817 -1.764,2.427 12.136,8.817 1.763,-2.427 12.135,8.81701 3.374,2.45099 -5.924,18.232 -2.853,-0.927 -4.635,14.266001 2.853,0.927 -4.635,14.266 -2.854,-0.92699 -4.635,14.26599 2.853,0.92701 -4.635,14.26499 -2.853,-0.927 -4.635,14.266 2.853,0.927 -4.635,14.266 -1.289,3.966 h -19.171 v -3 h -15 v 3 h -15 v -3 h -14.99999 v 3 h -15 v -3 H 90.521609 v 3 h -15 -4.17 l -5.924,-18.232 2.853,-0.927 -4.635,-14.266 -2.853,0.927 -4.635,-14.26499 2.853,-0.92701 -4.635,-14.26599 -2.854,0.92699 -4.635,-14.266 2.853,-0.927 -4.635,-14.266001 -2.852999,0.927 -4.635,-14.266 -1.289,-3.966 15.508999,-11.268 1.763,2.427 12.136,-8.817 -1.764,-2.427 12.136,-8.817 1.763,2.42701 12.135,-8.816 -1.763,-2.42701 12.135001,-8.81699 1.763,2.42699 12.136,-8.817 -1.764,-2.427 12.136,-8.8169997 z"
       id="top_outsideCutPath"
       stroke="#FF0000"
       stroke-width="0.1"
       style="fill:none;stroke:#ff0000;stroke-width:0.3;stroke-miterlimit:4;stroke-dasharray:none;stroke-opacity:1"
       vector-effect="non-scaling-stroke" />
    <ellipse
       style="fill:#ffffff;stroke:#fa0000;stroke-width:0.144504;stroke-miterlimit:4;stroke-dasharray:none;stroke-opacity:1"
       id="path915"
       cx="127.69132"
       cy="109.86329"
       rx="47.596958"
       ry="47.927746"
       inkscape:transform-center-x="0.41854926"
       inkscape:transform-center-y="-1.1966174" />
  </g>
</svg>
